<?xml version="1.0" encoding="iso-8859-1"?>
<!-- Generator: Adobe Illustrator 19.0.0, SVG Export Plug-In . SVG Version: 6.00 Build 0)  -->
<svg xmlns="http://www.w3.org/2000/svg" xmlns:xlink="http://www.w3.org/1999/xlink" version="1.1" id="Capa_1" x="0px" y="0px" viewBox="0 0 512 512" style="enable-background:new 0 0 512 512;" xml:space="preserve">
<rect x="7.5" y="7.5" style="fill:#C99361;" width="497" height="497"/>
<circle style="fill:#C1814D;" cx="256" cy="256" r="235.79"/>
<circle style="fill:#1E5D68;" cx="256" cy="256" r="202.5"/>
<circle style="fill:#2389A2;" cx="256" cy="256" r="105.67"/>
<circle style="fill:#207A89;" cx="256" cy="256" r="72"/>
<circle style="fill:#1E5D68;" cx="256" cy="256" r="35.585"/>
<polygon style="fill:#CBCFD1;" points="479.123,71.829 403.997,146.955 386.059,129.016 367.013,109.981 442.139,34.845 "/>
<rect x="379.469" y="87.741" transform="matrix(-0.7071 0.7071 -0.7071 -0.7071 809.4866 -134.4488)" style="fill:#9DA5A8;" width="106.239" height="25.369"/>
<rect x="364.72" y="466.29" style="fill:#E66480;" width="38.21" height="38.21"/>
<rect x="402.94" y="466.29" style="fill:#F1E9C5;" width="38.21" height="38.21"/>
<rect x="441.15" y="466.29" style="fill:#76C1B3;" width="38.21" height="38.21"/>
<path d="M504.5,0H7.5C3.358,0,0,3.358,0,7.5v497c0,4.142,3.358,7.5,7.5,7.5h357.222h38.214h38.213h38.214H504.5  c4.143,0,7.5-3.358,7.5-7.5V7.5C512,3.358,508.643,0,504.5,0z M395.436,497h-23.214v-23.214h23.214V497z M410.436,473.786h23.213  V497h-23.213V473.786z M448.648,497v-23.214h23.214V497H448.648z M486.862,497v-30.714c0-4.142-3.357-7.5-7.5-7.5h-38.214h-38.213  h-38.214c-4.143,0-7.5,3.358-7.5,7.5V497H15V15h482v14.782h-19.206c-1.989,0-3.896,0.79-5.304,2.197l-11.305,11.305l-13.737-13.737  c-1.407-1.407-3.314-2.197-5.304-2.197s-3.896,0.79-5.304,2.197l-56.906,56.906C343.813,59.964,301.112,45.99,256,45.99  C140.2,45.99,45.99,140.2,45.99,256S140.2,466.01,256,466.01S466.01,371.8,466.01,256c0-34.492-8.547-68.701-24.718-98.927  c-1.954-3.652-6.5-5.031-10.151-3.075c-3.652,1.954-5.029,6.499-3.075,10.151c15.011,28.057,22.944,59.818,22.944,91.851  c0,107.529-87.481,195.01-195.01,195.01S60.99,363.529,60.99,256S148.471,60.99,256,60.99c41.11,0,80.065,12.488,113.2,36.196  l-7.487,7.487c-2.929,2.929-2.929,7.678,0,10.606l13.738,13.738l-43.317,43.317c-20.117-18.323-46.843-29.508-76.133-29.508  c-62.404,0-113.173,50.77-113.173,113.173S193.596,369.173,256,369.173c62.403,0,113.173-50.77,113.173-113.173  c0-27.726-10.028-53.151-26.64-72.851l43.525-43.524l12.638,12.638c1.465,1.465,3.384,2.197,5.304,2.197  c1.919,0,3.839-0.732,5.304-2.197l75.128-75.127c2.929-2.929,2.929-7.678,0-10.606l-12.64-12.64l9.108-9.108H497V497H486.862z   M441.356,73.718c1.465,1.465,3.384,2.197,5.304,2.197c1.919,0,3.839-0.732,5.304-2.197l9.221-9.221l7.335,7.335l-64.521,64.521  l-12.629-12.629c-0.003-0.003-0.006-0.007-0.009-0.01s-0.007-0.006-0.01-0.009l-13.728-13.728l8.32-8.32  c0.042-0.042,0.085-0.083,0.126-0.126l56.075-56.075l8.434,8.434l-9.222,9.222C438.428,66.041,438.428,70.79,441.356,73.718z   M314.762,200.313c1.465,1.465,3.384,2.197,5.304,2.197c1.919,0,3.839-0.732,5.304-2.197l6.521-6.521  c13.917,16.947,22.282,38.619,22.282,62.209c0,54.133-44.04,98.173-98.173,98.173S157.827,310.133,157.827,256  s44.041-98.173,98.173-98.173c25.154,0,48.126,9.513,65.515,25.126l-6.753,6.753C311.833,192.635,311.833,197.384,314.762,200.313z"/>
<path d="M256,212.916c-23.757,0-43.084,19.328-43.084,43.084s19.328,43.084,43.084,43.084s43.085-19.328,43.085-43.084  S279.757,212.916,256,212.916z M256,284.084c-15.486,0-28.084-12.599-28.084-28.084s12.599-28.084,28.084-28.084  c15.486,0,28.085,12.599,28.085,28.084S271.486,284.084,256,284.084z"/>
<path d="M257.83,323.329c-37.125,0-67.329-30.204-67.329-67.329s30.204-67.329,67.329-67.329c4.143,0,7.5-3.358,7.5-7.5  s-3.357-7.5-7.5-7.5c-45.396,0-82.329,36.933-82.329,82.329s36.933,82.329,82.329,82.329c4.143,0,7.5-3.358,7.5-7.5  S261.973,323.329,257.83,323.329z"/>
<path d="M89.941,464.441H45.864c-4.142,0-7.5,3.358-7.5,7.5s3.358,7.5,7.5,7.5h44.077c4.142,0,7.5-3.358,7.5-7.5  S94.083,464.441,89.941,464.441z"/>
<path d="M89.941,441.552H45.864c-4.142,0-7.5,3.358-7.5,7.5s3.358,7.5,7.5,7.5h44.077c4.142,0,7.5-3.358,7.5-7.5  S94.083,441.552,89.941,441.552z"/>
<path d="M89.941,418.662H45.864c-4.142,0-7.5,3.358-7.5,7.5s3.358,7.5,7.5,7.5h44.077c4.142,0,7.5-3.358,7.5-7.5  S94.083,418.662,89.941,418.662z"/>
<g>
</g>
<g>
</g>
<g>
</g>
<g>
</g>
<g>
</g>
<g>
</g>
<g>
</g>
<g>
</g>
<g>
</g>
<g>
</g>
<g>
</g>
<g>
</g>
<g>
</g>
<g>
</g>
<g>
</g>
</svg>
